<?xml version="1.0" standalone="no"?>
<!DOCTYPE svg PUBLIC "-//W3C//DTD SVG 20010904//EN"
 "http://www.w3.org/TR/2001/REC-SVG-20010904/DTD/svg10.dtd">
<svg version="1.0" xmlns="http://www.w3.org/2000/svg"
 width="700.000000pt" height="700.000000pt" viewBox="0 0 700.000000 700.000000"
 preserveAspectRatio="xMidYMid meet">
<metadata>
Created by potrace 1.14, written by Peter Selinger 2001-2017
</metadata>
<g transform="translate(0.000000,700.000000) scale(0.100000,-0.100000)"
fill="#000000" stroke="none">
<path d="M1161 6764 c-142 -37 -259 -146 -305 -284 -16 -48 -22 -100 -31 -245
-3 -49 -8 -117 -10 -150 -2 -33 -6 -100 -10 -150 -15 -258 -16 -267 -30 -470
-3 -38 -7 -110 -10 -160 -3 -49 -7 -119 -10 -155 -3 -36 -7 -105 -10 -155 -3
-49 -8 -117 -10 -150 -2 -33 -7 -103 -10 -155 -9 -153 -14 -230 -20 -320 -4
-47 -8 -114 -10 -150 -3 -60 -11 -178 -20 -310 -2 -30 -6 -100 -10 -155 -3
-55 -8 -127 -10 -160 -3 -33 -7 -98 -10 -145 -9 -154 -16 -254 -20 -315 -6
-82 -14 -213 -20 -315 -3 -47 -7 -114 -9 -150 -3 -36 -7 -103 -10 -150 -8
-127 -16 -248 -21 -315 -2 -33 -7 -105 -10 -160 -4 -55 -8 -120 -9 -145 -2
-25 -7 -94 -10 -155 -4 -60 -9 -137 -11 -170 -3 -33 -7 -100 -10 -150 -3 -49
-7 -112 -10 -140 -2 -27 -7 -97 -10 -155 -3 -58 -8 -134 -10 -170 -3 -36 -7
-105 -10 -155 -3 -49 -8 -121 -11 -160 -12 -155 -12 -248 2 -307 37 -157 151
-275 314 -322 49 -15 275 -16 2465 -13 1325 2 2428 7 2450 11 268 51 494 140
684 268 94 64 117 84 221 189 208 209 337 484 384 816 13 95 16 478 4 499 -3
5 -9 36 -13 69 -14 128 -80 359 -141 493 -13 29 -24 55 -24 58 0 3 -48 103
-106 222 -144 295 -207 459 -258 672 -19 78 -53 273 -61 350 -3 30 -8 66 -10
80 -2 14 -7 63 -10 110 -4 47 -8 108 -11 135 -2 28 -6 142 -9 255 -5 224 -6
235 -35 330 -48 159 -178 320 -317 393 -195 102 -421 102 -616 0 -101 -53
-220 -173 -269 -273 -70 -140 -78 -190 -72 -480 2 -140 6 -275 8 -300 2 -25 7
-85 10 -135 4 -49 8 -103 10 -120 2 -16 7 -61 10 -100 4 -38 9 -77 11 -85 2
-8 6 -37 10 -65 7 -57 15 -107 21 -139 2 -11 6 -34 9 -51 36 -213 139 -577
205 -730 10 -22 37 -85 61 -140 23 -55 79 -174 124 -265 123 -248 137 -284
160 -398 16 -82 12 -217 -8 -263 -32 -78 -92 -96 -321 -97 l-166 -1 -1 27 c-1
15 -2 38 -3 52 -2 14 -6 81 -11 150 -4 69 -9 141 -10 160 -1 19 -5 85 -9 145
-4 61 -9 130 -11 155 -2 25 -7 95 -10 155 -3 61 -8 135 -10 165 -3 30 -7 102
-10 160 -4 58 -8 125 -10 150 -3 40 -11 163 -20 315 -4 68 -15 237 -20 310 -3
33 -7 98 -10 145 -3 47 -7 114 -10 150 -5 81 -13 208 -20 325 -3 50 -8 124
-11 165 -3 41 -7 107 -9 145 -5 88 -15 246 -20 305 -3 25 -7 92 -10 150 -3 58
-7 130 -10 160 -2 30 -7 96 -10 145 -12 193 -21 344 -30 470 -3 39 -7 108 -10
155 -2 47 -7 117 -10 155 -3 39 -7 108 -10 155 -3 47 -8 117 -10 155 -3 39 -7
111 -10 160 -14 235 -21 270 -68 358 -55 105 -177 195 -294 216 -68 13 -181 6
-233 -15 -67 -26 -144 -79 -182 -127 -19 -23 -135 -193 -257 -377 -123 -184
-225 -337 -228 -340 -9 -9 -1506 -5 -1518 5 -7 6 -116 165 -242 355 -234 351
-274 402 -347 445 -98 58 -228 76 -335 49z m408 -871 l282 -423 993 0 993 0
287 431 c158 237 289 429 291 427 2 -1 6 -52 10 -113 3 -60 8 -132 10 -160 2
-27 7 -93 10 -145 3 -52 7 -122 10 -155 2 -33 6 -105 10 -160 3 -55 8 -127 10
-160 3 -33 7 -103 10 -155 3 -52 8 -119 10 -149 3 -29 7 -96 10 -150 3 -53 7
-127 10 -166 3 -38 7 -108 10 -155 3 -47 8 -114 10 -150 3 -36 8 -105 10 -155
3 -49 7 -115 9 -145 2 -30 7 -104 11 -165 3 -60 8 -132 11 -160 2 -27 6 -95 9
-150 3 -55 8 -127 10 -160 2 -33 6 -103 10 -155 3 -52 8 -117 10 -145 8 -94
18 -290 19 -360 l1 -70 -347 0 c-302 0 -348 -2 -349 -15 -1 -20 -1 -160 0
-185 1 -20 8 -20 355 -20 195 0 357 -2 359 -5 3 -3 7 -52 9 -110 l3 -104 -364
-1 -363 0 -2 -98 c0 -55 2 -104 5 -109 5 -7 130 -10 373 -10 282 1 368 -1 371
-11 2 -6 6 -56 9 -109 l5 -98 -380 0 c-245 0 -379 -4 -380 -10 0 -5 -1 -54 -2
-107 l0 -98 386 -3 c213 -1 387 -6 388 -10 4 -36 8 -88 12 -145 l5 -67 -394 0
c-217 0 -394 -3 -395 -7 -1 -10 -1 -185 0 -200 1 -8 98 -11 379 -12 207 0 388
0 402 -1 23 0 25 -4 26 -43 1 -37 12 -217 19 -317 2 -19 3 -44 4 -55 1 -21 4
-21 399 -20 376 2 402 3 485 24 314 80 482 321 471 675 -7 223 -47 346 -242
746 -135 278 -226 516 -268 702 -5 21 -7 31 -28 119 -16 69 -17 75 -35 174
-23 129 -48 323 -57 450 -3 44 -7 94 -10 110 -2 17 -7 145 -10 286 -7 251 -6
258 15 303 50 101 174 155 273 117 42 -16 97 -71 119 -119 22 -48 23 -61 34
-397 3 -99 7 -196 9 -215 2 -19 7 -75 11 -125 3 -49 8 -99 10 -110 2 -11 7
-40 10 -65 3 -25 7 -56 10 -70 3 -14 8 -45 11 -70 3 -25 8 -47 9 -50 2 -3 6
-26 10 -50 10 -71 71 -296 105 -395 46 -129 101 -257 187 -429 185 -372 244
-546 268 -791 6 -61 6 -253 0 -315 -8 -73 -51 -253 -70 -290 -9 -17 -13 -30
-11 -30 11 0 -91 -171 -134 -225 -171 -213 -461 -362 -764 -391 -73 -7 -4651
-13 -4674 -5 -13 3 -13 19 3 231 2 25 6 97 10 160 4 63 8 133 10 155 2 22 6
94 10 159 4 65 9 126 10 135 2 9 4 21 4 26 1 6 141 10 399 10 l397 0 3 107 3
108 -396 0 -395 0 4 53 c2 28 4 78 5 110 l1 57 390 0 390 0 0 110 0 110 -381
0 -381 0 7 93 c4 50 7 100 7 109 -1 15 24 17 296 17 163 0 332 0 375 0 l77 1
0 108 0 108 -342 -1 c-347 0 -401 2 -394 14 3 4 7 49 10 101 4 52 10 97 16
100 5 3 167 5 360 5 l351 0 -3 110 -3 110 -347 0 c-361 -1 -351 -2 -350 35 0
17 14 233 17 275 5 66 14 209 20 315 3 47 7 112 10 145 3 33 7 105 10 160 3
55 7 125 10 155 2 30 6 98 10 150 3 52 7 124 10 160 2 36 7 106 10 155 11 179
15 251 20 315 3 36 8 106 10 155 3 50 7 119 10 155 3 36 7 101 10 145 2 44 7
114 9 155 3 41 8 116 11 165 3 50 8 115 10 145 2 30 7 105 10 165 4 61 8 130
10 155 2 25 7 92 11 150 3 58 8 121 9 140 1 19 3 48 4 65 0 17 5 25 10 20 5
-6 135 -200 290 -432z"/>
<path d="M2008 4812 l-38 -3 0 -108 0 -107 213 2 c116 0 215 2 218 3 11 2 7
211 -5 212 -43 2 -358 3 -388 1z"/>
<path d="M3281 4704 l2 -110 218 0 217 0 1 110 1 111 -220 0 -220 0 1 -111z"/>
<path d="M2673 4368 c-131 -22 -211 -174 -157 -296 26 -58 187 -220 242 -243
50 -22 98 -24 156 -7 59 17 249 206 265 263 31 114 -12 215 -114 267 -35 19
-59 21 -195 22 -85 1 -174 -2 -197 -6z m235 -275 l-62 -63 -25 23 c-30 27
-101 98 -101 100 0 1 56 2 125 2 l125 0 -62 -62z"/>
</g>
</svg>
